<?xml version="1.0" encoding="UTF-8"?><svg id="a" xmlns="http://www.w3.org/2000/svg" width="698.73" height="176.36" viewBox="0 0 698.73 176.36"><path d="M126.42,149.17c19.66-12.63,30.36-36.65,24.96-60.73l-12.54-55.83c-4.82,1.22-9.36,3.04-13.54,5.34-.47.26-.93.52-1.4.79-.47.27-.92.55-1.38.84-4.15,2.6-7.9,5.71-11.21,9.21-.38.41-.75.81-1.12,1.23-.37.42-.74.84-1.1,1.27-11.06,13.21-16.09,31.25-12.03,49.33l12.06,53.7.19.83.05.23.17.79.06.28c.54-.14,1.07-.28,1.6-.43,1.51-.43,2.99-.92,4.44-1.46.57-.22,1.13-.43,1.69-.66,3.2-1.32,6.23-2.9,9.07-4.73Z" fill="#fff"/><path d="M105.22,153.04l-10.47-34.85c-2.86-10.42-8.53-24.59-8.41-35.44-.83-25.42,16.87-49.78,41.36-56.9.28.75,1.77,5.43,2.08,6.31,0,0-2.77.89-2.77.89l-1.54-4.99,1.77.91c-11.32,3.47-21.48,10.68-28.5,20.31-10.84,14.42-13.78,34.06-8.21,51.2,3.14,11.24,11.46,40.97,14.69,52.56h0Z" fill="#fff"/><path d="M100.14,147.72l-12.36-34.22c-3.42-10.25-9.86-24.09-10.34-34.92-2.21-25.33,14.13-50.63,38.19-59.08.32.73,2.06,5.32,2.42,6.18,0,0-2.72,1.04-2.72,1.04l-1.81-4.9,1.81.81c-11.11,4.08-20.87,11.84-27.34,21.84-10.03,14.99-11.89,34.76-5.4,51.57,3.75,11.06,13.68,40.29,17.54,51.68h0Z" fill="#fff"/><path d="M209.02,32.58c15.82,0,27.37,3.24,34.64,9.73,7.27,6.49,10.9,15.57,10.9,27.26,0,5.31-.83,10.36-2.47,15.14-1.65,4.78-4.35,9-8.09,12.66-3.75,3.66-8.68,6.56-14.8,8.68-6.12,2.13-13.66,3.19-22.6,3.19h-13.08v45.96h-20.13V32.58h35.64ZM207.67,49.27h-14.17v43.19h10.99c6.32,0,11.68-.74,16.1-2.22,4.42-1.48,7.77-3.84,10.06-7.09,2.29-3.24,3.44-7.52,3.44-12.83,0-7.1-2.14-12.38-6.42-15.85-4.28-3.47-10.94-5.2-20-5.2Z" fill="#fff"/><path d="M305.34,60.59c8.27,0,15.37,1.71,21.3,5.12,5.93,3.41,10.48,8.25,13.67,14.51,3.19,6.26,4.78,13.75,4.78,22.48v10.57h-61.97c.22,9,2.64,15.93,7.25,20.8,4.61,4.86,11.08,7.3,19.41,7.3,5.93,0,11.25-.57,15.98-1.72,4.72-1.15,9.6-2.84,14.63-5.07v16.02c-4.64,2.18-9.37,3.77-14.17,4.78-4.81,1.01-10.57,1.51-17.28,1.51-9.11,0-17.12-1.77-24.03-5.33-6.91-3.55-12.3-8.85-16.19-15.89-3.89-7.04-5.83-15.79-5.83-26.25s1.76-19.23,5.28-26.5c3.52-7.27,8.47-12.8,14.84-16.6,6.37-3.8,13.81-5.7,22.31-5.7ZM305.34,75.44c-6.21,0-11.22,2.01-15.05,6.04-3.83,4.03-6.08,9.92-6.75,17.69h42.27c-.06-4.64-.83-8.75-2.31-12.33-1.48-3.58-3.72-6.37-6.71-8.39-2.99-2.01-6.81-3.02-11.45-3.02Z" fill="#fff"/><path d="M378.43,24.7v63.06c0,2.85-.11,5.97-.34,9.35-.22,3.38-.45,6.56-.67,9.52h.42c1.45-1.96,3.2-4.25,5.24-6.88,2.04-2.63,3.98-4.92,5.83-6.88l28.35-30.53h22.64l-37.15,39.92,39.58,52.92h-23.15l-29.69-40.76-11.07,9.48v31.28h-19.71V24.7h19.71Z" fill="#fff"/><path d="M530.69,108.56c0,7.72-1.01,14.57-3.02,20.55-2.01,5.98-4.95,11.03-8.81,15.14-3.86,4.11-8.5,7.24-13.92,9.39-5.42,2.15-11.55,3.23-18.37,3.23-6.37,0-12.22-1.08-17.53-3.23-5.31-2.15-9.91-5.28-13.8-9.39-3.89-4.11-6.89-9.15-9.02-15.14-2.13-5.98-3.19-12.83-3.19-20.55,0-10.23,1.77-18.91,5.33-26.04,3.55-7.13,8.62-12.56,15.22-16.31,6.6-3.75,14.45-5.62,23.57-5.62,8.55,0,16.1,1.87,22.64,5.62,6.54,3.75,11.66,9.2,15.35,16.35,3.69,7.16,5.53,15.82,5.53,26ZM463.35,108.56c0,6.77.82,12.55,2.47,17.36,1.65,4.81,4.21,8.48,7.67,11.03,3.47,2.54,7.94,3.82,13.42,3.82s9.95-1.27,13.42-3.82c3.47-2.54,6.01-6.22,7.63-11.03,1.62-4.81,2.43-10.59,2.43-17.36s-.81-12.51-2.43-17.23c-1.62-4.72-4.17-8.33-7.63-10.82-3.47-2.49-7.97-3.73-13.5-3.73-8.16,0-14.12,2.74-17.86,8.22-3.75,5.48-5.62,13.33-5.62,23.56Z" fill="#fff"/><path d="M581.73,60.59c8.27,0,15.37,1.71,21.3,5.12,5.93,3.41,10.48,8.25,13.67,14.51,3.19,6.26,4.78,13.75,4.78,22.48v10.57h-61.97c.22,9,2.64,15.93,7.25,20.8,4.61,4.86,11.08,7.3,19.41,7.3,5.93,0,11.25-.57,15.98-1.72,4.72-1.15,9.6-2.84,14.63-5.07v16.02c-4.64,2.18-9.37,3.77-14.17,4.78-4.81,1.01-10.57,1.51-17.28,1.51-9.11,0-17.12-1.77-24.03-5.33-6.91-3.55-12.3-8.85-16.19-15.89-3.89-7.04-5.83-15.79-5.83-26.25s1.76-19.23,5.28-26.5c3.52-7.27,8.47-12.8,14.84-16.6,6.37-3.8,13.81-5.7,22.31-5.7ZM581.73,75.44c-6.21,0-11.22,2.01-15.05,6.04-3.83,4.03-6.08,9.92-6.75,17.69h42.27c-.06-4.64-.83-8.75-2.31-12.33-1.48-3.58-3.72-6.37-6.71-8.39-2.99-2.01-6.81-3.02-11.45-3.02Z" fill="#fff"/></svg>