<?xml version="1.0" encoding="UTF-8"?><svg id="a" xmlns="http://www.w3.org/2000/svg" width="528.89" height="136.97" xmlns:xlink="http://www.w3.org/1999/xlink" viewBox="0 0 528.89 136.97"><defs><linearGradient id="b" x1="46.99" y1="142.36" x2="46.99" y2="8.87" gradientUnits="userSpaceOnUse"><stop offset="0" stop-color="#8d4cc2"/><stop offset=".14" stop-color="#8052c7"/><stop offset=".4" stop-color="#6064d5"/><stop offset=".74" stop-color="#2c81eb"/><stop offset="1" stop-color="#009aff"/></linearGradient></defs><path d="M49.18,129.68c19.66-12.63,30.36-36.65,24.96-60.73l-12.54-55.83c-4.82,1.22-9.36,3.04-13.54,5.34-.47.26-.93.52-1.4.79-.47.27-.92.55-1.38.84-4.15,2.6-7.9,5.71-11.21,9.21-.38.41-.75.81-1.12,1.23-.37.42-.74.84-1.1,1.27-11.06,13.21-16.09,31.25-12.03,49.33l12.06,53.7.19.83.05.23.17.79.06.28c.54-.14,1.07-.28,1.6-.43,1.51-.43,2.99-.92,4.44-1.46.57-.22,1.13-.43,1.69-.66,3.2-1.32,6.23-2.9,9.07-4.73Z" fill="url(#b)"/><path d="M27.98,133.55l-10.47-34.85c-2.86-10.42-8.53-24.59-8.41-35.44-.83-25.42,16.87-49.78,41.36-56.9.28.75,1.77,5.43,2.08,6.31,0,0-2.77.89-2.77.89l-1.54-4.99,1.77.91c-11.32,3.47-21.48,10.68-28.5,20.31-10.84,14.42-13.78,34.06-8.21,51.2,3.14,11.24,11.46,40.97,14.69,52.56h0Z" fill="#00bb0c"/><path d="M22.9,128.22l-12.36-34.22C7.12,83.75.68,69.91.2,59.08-2.01,33.74,14.33,8.45,38.39,0c.32.73,2.06,5.32,2.42,6.18,0,0-2.72,1.04-2.72,1.04l-1.81-4.9,1.81.81c-11.11,4.08-20.87,11.84-27.34,21.84C.71,39.96-1.14,59.73,5.35,76.54c3.75,11.06,13.68,40.29,17.54,51.68h0Z" fill="#00bb0c"/><path d="M151.32,132.42h-19.55V29.59h-35.18V12.82h89.91v16.77h-35.18v102.84Z"/><path d="M242.3,134.06c-14.07,0-25.08-4.1-33.01-12.31-7.94-8.21-11.9-19.51-11.9-33.91s3.68-26.4,11.04-34.85c7.36-8.45,17.48-12.68,30.35-12.68,11.94,0,21.38,3.63,28.31,10.88,6.93,7.25,10.39,17.24,10.39,29.94v10.39h-60.29c.27,8.78,2.65,15.53,7.12,20.25,4.47,4.72,10.77,7.08,18.9,7.08,5.34,0,10.32-.5,14.93-1.51,4.61-1.01,9.56-2.69,14.85-5.03v15.63c-4.69,2.24-9.44,3.82-14.24,4.75-4.8.93-10.28,1.39-16.44,1.39ZM238.78,54.87c-6.11,0-11,1.94-14.69,5.81-3.68,3.87-5.88,9.52-6.59,16.94h41.07c-.11-7.47-1.91-13.13-5.4-16.98-3.49-3.85-8.29-5.77-14.4-5.77Z"/><path d="M355.94,132.42l-3.85-12.6h-.65c-4.36,5.51-8.75,9.26-13.17,11.25-4.42,1.99-10.09,2.99-17.02,2.99-8.89,0-15.83-2.4-20.82-7.2-4.99-4.8-7.49-11.59-7.49-20.37,0-9.33,3.46-16.36,10.39-21.11,6.93-4.75,17.48-7.33,31.66-7.77l15.63-.49v-4.83c0-5.78-1.35-10.1-4.05-12.97-2.7-2.86-6.89-4.29-12.56-4.29-4.64,0-9.08.68-13.33,2.05-4.25,1.36-8.34,2.97-12.27,4.83l-6.22-13.74c4.91-2.56,10.28-4.51,16.12-5.85,5.84-1.34,11.34-2,16.53-2,11.51,0,20.19,2.51,26.06,7.53,5.86,5.02,8.79,12.9,8.79,23.64v60.95h-13.74ZM327.3,119.33c6.98,0,12.58-1.95,16.81-5.85,4.23-3.9,6.34-9.37,6.34-16.4v-7.85l-11.62.49c-9.05.33-15.64,1.84-19.76,4.54-4.12,2.7-6.18,6.83-6.18,12.39,0,4.04,1.2,7.16,3.6,9.37,2.4,2.21,6,3.31,10.8,3.31Z"/><path d="M472.76,132.42l-11.94-33.22h-45.73l-11.7,33.22h-20.62l44.75-120.1h21.27l44.75,120.1h-20.78ZM455.66,82.36l-11.21-32.56c-.82-2.18-1.95-5.62-3.4-10.31-1.45-4.69-2.44-8.13-2.99-10.31-1.47,6.71-3.63,14.04-6.46,22.01l-10.8,31.17h34.85Z"/><path d="M509.33,132.42V12.82h19.55v119.61h-19.55Z"/></svg>